<?xml version="1.0" standalone="no"?>
<!DOCTYPE svg PUBLIC "-//W3C//DTD SVG 20010904//EN"
 "http://www.w3.org/TR/2001/REC-SVG-20010904/DTD/svg10.dtd">
<svg version="1.0" xmlns="http://www.w3.org/2000/svg"
 width="1600.000000pt" height="1600.000000pt" viewBox="0 0 1600.000000 1600.000000"
 preserveAspectRatio="xMidYMid meet">

  <!-- Background here -->

  <g transform="translate(0.000000,1600.000000) scale(0.100000,-0.100000)"
  fill="#383838" stroke="none">
    <path d="M5189 11825 c-177 -43 -326 -175 -397 -352 l-27 -68 -3 -3373 c-2
    -3687 -6 -3435 54 -3555 77 -154 231 -274 393 -308 78 -16 223 -7 295 19 167
    61 295 188 359 358 l22 59 3 3360 c2 2456 0 3376 -8 3419 -41 211 -213 392
    -422 441 -77 18 -194 18 -269 0z"/>
    <path d="M10538 11825 c-199 -50 -361 -212 -413 -412 -13 -50 -15 -470 -15
    -3405 0 -2419 3 -3362 11 -3400 15 -71 69 -182 116 -240 74 -92 201 -170 322
    -198 74 -17 220 -8 295 19 169 60 307 201 362 368 19 57 19 134 19 3443 l0
    3385 -23 67 c-58 168 -188 299 -358 359 -76 28 -234 35 -316 14z"/>
    <path d="M3859 10865 c-177 -43 -326 -175 -397 -352 l-27 -68 -3 -2413 c-2
    -2680 -8 -2476 65 -2615 73 -138 229 -256 379 -287 81 -17 225 -8 298 18 169
    61 299 191 360 361 21 56 21 64 24 2456 2 1768 0 2416 -9 2460 -40 211 -212
    391 -421 440 -77 18 -194 18 -269 0z"/>
    <path d="M11875 10867 c-165 -43 -303 -154 -379 -304 -60 -120 -56 51 -56
    -2555 0 -1714 3 -2402 11 -2440 15 -71 69 -182 116 -240 74 -92 201 -170 322
    -198 74 -17 220 -8 295 19 169 60 307 201 362 368 19 57 19 120 19 2483 l0
    2425 -23 67 c-58 167 -189 299 -358 359 -73 27 -235 35 -309 16z"/>
    <path d="M2529 9425 c-177 -43 -326 -175 -397 -352 l-27 -68 -3 -978 c-3
    -1089 -6 -1034 66 -1171 61 -117 163 -207 297 -262 65 -27 79 -29 200 -29 125
    0 133 2 205 33 139 60 241 156 309 289 51 101 51 99 51 1110 0 658 -3 958 -11
    995 -44 209 -215 384 -421 433 -77 18 -194 18 -269 0z"/>
    <path d="M13205 9427 c-163 -42 -304 -155 -378 -303 -58 -116 -57 -87 -57
    -1117 0 -656 3 -962 11 -999 26 -123 108 -253 209 -329 115 -88 233 -124 374
    -117 192 11 356 110 457 277 79 130 74 57 74 1156 l0 980 -22 70 c-53 167
    -188 305 -359 366 -73 27 -235 35 -309 16z"/>
    <path d="M6548 8585 c-124 -31 -256 -116 -332 -215 -232 -302 -131 -743 210
    -909 131 -64 54 -61 1571 -61 977 0 1398 3 1435 11 29 6 86 26 126 45 130 59
    221 147 288 276 175 342 -23 764 -401 854 -88 20 -2811 19 -2897 -1z"/>
  </g>
</svg>
